<svg width="800" height="437" viewBox="0 0 800 437" fill="none" xmlns="http://www.w3.org/2000/svg">
<path d="M137.872 174.76C151.932 174.76 163.331 187.157 163.331 202.448V348.45C163.331 365.177 150.863 378.736 135.484 378.736C126.315 378.736 117.734 373.828 112.539 365.612L53.2823 271.908C53.1482 271.696 52.9261 271.569 52.689 271.569C52.2912 271.569 51.9686 271.92 51.9686 272.352V351.048C51.9686 366.339 40.5703 378.736 26.5093 378.736C12.4484 378.736 1.0498 366.339 1.0498 351.048V205.492C1.0498 188.519 13.7014 174.76 29.308 174.76C38.6704 174.76 47.4251 179.804 52.685 188.227L110.662 281.072C110.84 281.358 111.137 281.528 111.454 281.528C111.983 281.528 112.412 281.062 112.412 280.487V202.448C112.412 187.157 123.811 174.76 137.872 174.76Z" fill="white"/>
<path d="M227.346 381.126C218.371 381.126 210.434 379.533 203.535 376.345C196.697 373.092 191.325 368.178 187.417 361.605C183.51 355.031 181.556 346.665 181.556 336.506C181.556 328.14 182.868 321.002 185.494 315.093C188.119 309.117 191.782 304.237 196.483 300.452C201.185 296.667 206.649 293.779 212.876 291.787C219.165 289.795 225.942 288.501 233.207 287.903C241.084 287.239 247.402 286.442 252.165 285.513C256.988 284.517 260.468 283.155 262.605 281.429C264.742 279.636 265.81 277.279 265.81 274.358V273.959C265.81 269.975 264.406 266.921 261.598 264.796C258.789 262.672 255.187 261.609 250.791 261.609C245.968 261.609 242.03 262.771 238.977 265.095C233.621 269.137 228.726 275.553 222.207 275.553H212.335C198.672 275.553 187.6 262.204 195.202 249.857C200.086 241.955 207.199 235.647 216.54 230.933C225.881 226.153 237.542 223.762 251.524 223.762C261.598 223.762 270.634 225.057 278.632 227.646C286.63 230.169 293.437 233.722 299.054 238.303C304.671 242.819 308.945 248.13 311.876 254.239C314.867 260.281 316.363 266.855 316.363 273.959V353.04C316.363 367.231 305.785 378.736 292.735 378.736H278.998C273.535 378.736 269.107 373.92 269.107 367.979V357.97C269.107 357.557 268.799 357.223 268.42 357.223C268.167 357.223 267.934 357.375 267.812 357.617C265.041 363.146 261.687 367.629 257.751 371.067C253.783 374.586 249.234 377.142 244.106 378.736C239.038 380.329 233.452 381.126 227.346 381.126ZM243.831 346.466C247.677 346.466 251.279 345.603 254.638 343.876C258.056 342.15 260.834 339.66 262.971 336.407C265.108 333.153 266.177 329.203 266.177 324.555V316.785C266.177 314.41 263.953 312.775 261.872 313.499C260.407 314.031 258.819 314.529 257.11 314.994C255.462 315.458 253.691 315.89 251.798 316.288C249.967 316.687 248.044 317.052 246.029 317.384C242.121 318.048 238.916 319.143 236.413 320.671C233.971 322.131 232.139 323.957 230.918 326.148C229.758 328.273 229.178 330.663 229.178 333.319C229.178 337.569 230.552 340.822 233.299 343.08C236.046 345.337 239.557 346.466 243.831 346.466Z" fill="white"/>
<path d="M443.299 225.754C459.982 225.754 471.748 243.553 466.436 260.753L439.324 348.524C433.75 366.575 418.195 378.736 400.687 378.736C383.178 378.736 367.624 366.574 362.048 348.524L334.935 260.753C329.622 243.553 341.389 225.754 358.074 225.754C369.326 225.754 379.12 234.118 381.786 246.005L399.781 326.171C399.883 326.625 400.256 326.945 400.687 326.945C401.118 326.945 401.49 326.625 401.593 326.171L419.587 246.005C422.254 234.118 432.047 225.754 443.299 225.754Z" fill="white"/>
<path d="M522.396 436.102C516.595 436.102 511.072 435.606 505.819 434.608C497.867 433.202 493.823 424.228 496.179 415.849L499.551 403.879C501.421 397.229 507.993 393.908 514.338 394.771C517.819 395.236 520.778 394.97 523.222 393.974C525.724 392.978 527.525 391.086 528.625 388.297C529.333 386.501 529.406 384.485 528.833 382.633L490.988 260.379C485.721 243.367 497.359 225.754 513.863 225.754C525.081 225.754 534.824 234.162 537.37 246.045L555.565 330.948C555.664 331.404 556.037 331.726 556.468 331.726C556.895 331.726 557.268 331.405 557.366 330.952L575.839 246.122C578.44 234.185 588.241 225.754 599.521 225.754C616.164 225.754 627.898 243.512 622.59 260.665L582.108 391.484C579.543 399.919 575.821 407.487 570.933 414.193C566.111 420.966 559.763 426.309 551.887 430.227C544.011 434.144 534.181 436.102 522.396 436.102Z" fill="white"/>
<path d="M774.765 265.068C783.054 270.273 781.421 283.781 772.172 286.476L650.444 321.948L464.325 205.087L431.711 72.7041C429.231 62.6475 439.171 54.3533 447.463 59.5587L774.765 265.068Z" fill="#FFE5B2"/>
<path d="M464.325 205.087L600.734 165.338C606.466 163.668 612.358 167.367 613.896 173.601L650.444 321.948L464.325 205.087Z" fill="#FFE5B2"/>
<path d="M464.325 205.087L600.734 165.338C606.466 163.668 612.358 167.367 613.896 173.601L650.444 321.948L464.325 205.087Z" fill="#F6D096"/>
<path d="M518.053 103.883L654.462 64.1333C660.194 62.4632 666.086 66.1626 667.62 72.3966L704.172 220.744L518.053 103.883Z" fill="#F6D096"/>
</svg>
